<svg width="559" height="98" viewBox="0 0 559 98" fill="none" xmlns="http://www.w3.org/2000/svg">
<g filter="url(#filter0_d)">
<path d="M115.008 25.7282L108.42 51.0002H100.968L96.936 34.3682L92.76 51.0002H85.308L78.9 25.7282H85.488L89.124 44.1242L93.624 25.7282H100.392L104.712 44.1242L108.384 25.7282H115.008ZM127.239 51.2882C125.271 51.2882 123.495 50.8682 121.911 50.0282C120.351 49.1882 119.115 47.9882 118.203 46.4282C117.315 44.8682 116.871 43.0442 116.871 40.9562C116.871 38.8922 117.327 37.0802 118.239 35.5202C119.151 33.9362 120.399 32.7242 121.983 31.8842C123.567 31.0442 125.343 30.6242 127.311 30.6242C129.279 30.6242 131.055 31.0442 132.639 31.8842C134.223 32.7242 135.471 33.9362 136.383 35.5202C137.295 37.0802 137.751 38.8922 137.751 40.9562C137.751 43.0202 137.283 44.8442 136.347 46.4282C135.435 47.9882 134.175 49.1882 132.567 50.0282C130.983 50.8682 129.207 51.2882 127.239 51.2882ZM127.239 45.9602C128.415 45.9602 129.411 45.5282 130.227 44.6642C131.067 43.8002 131.487 42.5642 131.487 40.9562C131.487 39.3482 131.079 38.1122 130.263 37.2482C129.471 36.3842 128.487 35.9522 127.311 35.9522C126.111 35.9522 125.115 36.3842 124.323 37.2482C123.531 38.0882 123.135 39.3242 123.135 40.9562C123.135 42.5642 123.519 43.8002 124.287 44.6642C125.079 45.5282 126.063 45.9602 127.239 45.9602ZM147.173 33.7562C147.773 32.8202 148.601 32.0642 149.657 31.4882C150.713 30.9122 151.949 30.6242 153.365 30.6242C155.021 30.6242 156.521 31.0442 157.865 31.8842C159.209 32.7242 160.265 33.9242 161.033 35.4842C161.825 37.0442 162.221 38.8562 162.221 40.9202C162.221 42.9842 161.825 44.8082 161.033 46.3922C160.265 47.9522 159.209 49.1642 157.865 50.0282C156.521 50.8682 155.021 51.2882 153.365 51.2882C151.973 51.2882 150.737 51.0002 149.657 50.4242C148.601 49.8482 147.773 49.1042 147.173 48.1922V60.5762H141.017V30.9122H147.173V33.7562ZM155.957 40.9202C155.957 39.3842 155.525 38.1842 154.661 37.3202C153.821 36.4322 152.777 35.9882 151.529 35.9882C150.305 35.9882 149.261 36.4322 148.397 37.3202C147.557 38.2082 147.137 39.4202 147.137 40.9562C147.137 42.4922 147.557 43.7042 148.397 44.5922C149.261 45.4802 150.305 45.9242 151.529 45.9242C152.753 45.9242 153.797 45.4802 154.661 44.5922C155.525 43.6802 155.957 42.4562 155.957 40.9202ZM171.607 33.7562C172.207 32.8202 173.035 32.0642 174.091 31.4882C175.147 30.9122 176.383 30.6242 177.799 30.6242C179.455 30.6242 180.955 31.0442 182.299 31.8842C183.643 32.7242 184.699 33.9242 185.467 35.4842C186.259 37.0442 186.655 38.8562 186.655 40.9202C186.655 42.9842 186.259 44.8082 185.467 46.3922C184.699 47.9522 183.643 49.1642 182.299 50.0282C180.955 50.8682 179.455 51.2882 177.799 51.2882C176.407 51.2882 175.171 51.0002 174.091 50.4242C173.035 49.8482 172.207 49.1042 171.607 48.1922V60.5762H165.451V30.9122H171.607V33.7562ZM180.391 40.9202C180.391 39.3842 179.959 38.1842 179.095 37.3202C178.255 36.4322 177.211 35.9882 175.963 35.9882C174.739 35.9882 173.695 36.4322 172.831 37.3202C171.991 38.2082 171.571 39.4202 171.571 40.9562C171.571 42.4922 171.991 43.7042 172.831 44.5922C173.695 45.4802 174.739 45.9242 175.963 45.9242C177.187 45.9242 178.231 45.4802 179.095 44.5922C179.959 43.6802 180.391 42.4562 180.391 40.9202ZM210.404 30.9122L197.804 60.5402H191.18L195.788 50.3162L187.616 30.9122H194.492L199.136 43.4762L203.744 30.9122H210.404ZM229.727 25.7282C232.391 25.7282 234.719 26.2562 236.711 27.3122C238.703 28.3682 240.239 29.8562 241.319 31.7762C242.423 33.6722 242.975 35.8682 242.975 38.3642C242.975 40.8362 242.423 43.0322 241.319 44.9522C240.239 46.8722 238.691 48.3602 236.675 49.4162C234.683 50.4722 232.367 51.0002 229.727 51.0002H220.259V25.7282H229.727ZM229.331 45.6722C231.659 45.6722 233.471 45.0362 234.767 43.7642C236.063 42.4922 236.711 40.6922 236.711 38.3642C236.711 36.0362 236.063 34.2242 234.767 32.9282C233.471 31.6322 231.659 30.9842 229.331 30.9842H226.415V45.6722H229.331ZM265.352 40.6322C265.352 41.2082 265.316 41.8082 265.244 42.4322H251.312C251.408 43.6802 251.804 44.6402 252.5 45.3122C253.22 45.9602 254.096 46.2842 255.128 46.2842C256.664 46.2842 257.732 45.6362 258.332 44.3402H264.884C264.548 45.6602 263.936 46.8482 263.048 47.9042C262.184 48.9602 261.092 49.7882 259.772 50.3882C258.452 50.9882 256.976 51.2882 255.344 51.2882C253.376 51.2882 251.624 50.8682 250.088 50.0282C248.552 49.1882 247.352 47.9882 246.488 46.4282C245.624 44.8682 245.192 43.0442 245.192 40.9562C245.192 38.8682 245.612 37.0442 246.452 35.4842C247.316 33.9242 248.516 32.7242 250.052 31.8842C251.588 31.0442 253.352 30.6242 255.344 30.6242C257.288 30.6242 259.016 31.0322 260.528 31.8482C262.04 32.6642 263.216 33.8282 264.056 35.3402C264.92 36.8522 265.352 38.6162 265.352 40.6322ZM259.052 39.0122C259.052 37.9562 258.692 37.1162 257.972 36.4922C257.252 35.8682 256.352 35.5562 255.272 35.5562C254.24 35.5562 253.364 35.8562 252.644 36.4562C251.948 37.0562 251.516 37.9082 251.348 39.0122H259.052ZM276.771 51.2882C275.019 51.2882 273.459 50.9882 272.091 50.3882C270.723 49.7882 269.643 48.9722 268.851 47.9402C268.059 46.8842 267.615 45.7082 267.519 44.4122H273.603C273.675 45.1082 273.999 45.6722 274.575 46.1042C275.151 46.5362 275.859 46.7522 276.699 46.7522C277.467 46.7522 278.055 46.6082 278.463 46.3202C278.895 46.0082 279.111 45.6122 279.111 45.1322C279.111 44.5562 278.811 44.1362 278.211 43.8722C277.611 43.5842 276.639 43.2722 275.295 42.9362C273.855 42.6002 272.655 42.2522 271.695 41.8922C270.735 41.5082 269.907 40.9202 269.211 40.1282C268.515 39.3122 268.167 38.2202 268.167 36.8522C268.167 35.7002 268.479 34.6562 269.103 33.7202C269.751 32.7602 270.687 32.0042 271.911 31.4522C273.159 30.9002 274.635 30.6242 276.339 30.6242C278.859 30.6242 280.839 31.2482 282.279 32.4962C283.743 33.7442 284.583 35.4002 284.799 37.4642H279.111C279.015 36.7682 278.703 36.2162 278.175 35.8082C277.671 35.4002 276.999 35.1962 276.159 35.1962C275.439 35.1962 274.887 35.3402 274.503 35.6282C274.119 35.8922 273.927 36.2642 273.927 36.7442C273.927 37.3202 274.227 37.7522 274.827 38.0402C275.451 38.3282 276.411 38.6162 277.707 38.9042C279.195 39.2882 280.407 39.6722 281.343 40.0562C282.279 40.4162 283.095 41.0162 283.791 41.8562C284.511 42.6722 284.883 43.7762 284.907 45.1682C284.907 46.3442 284.571 47.4002 283.899 48.3362C283.251 49.2482 282.303 49.9682 281.055 50.4962C279.831 51.0242 278.403 51.2882 276.771 51.2882ZM291.769 28.8242C290.689 28.8242 289.801 28.5122 289.105 27.8882C288.433 27.2402 288.097 26.4482 288.097 25.5122C288.097 24.5522 288.433 23.7602 289.105 23.1362C289.801 22.4882 290.689 22.1642 291.769 22.1642C292.825 22.1642 293.689 22.4882 294.361 23.1362C295.057 23.7602 295.405 24.5522 295.405 25.5122C295.405 26.4482 295.057 27.2402 294.361 27.8882C293.689 28.5122 292.825 28.8242 291.769 28.8242ZM294.829 30.9122V51.0002H288.673V30.9122H294.829ZM306.923 30.6242C308.339 30.6242 309.575 30.9122 310.631 31.4882C311.711 32.0642 312.539 32.8202 313.115 33.7562V30.9122H319.271V50.9642C319.271 52.8122 318.899 54.4802 318.155 55.9682C317.435 57.4802 316.319 58.6802 314.807 59.5682C313.319 60.4562 311.459 60.9002 309.227 60.9002C306.251 60.9002 303.839 60.1922 301.991 58.7762C300.143 57.3842 299.087 55.4882 298.823 53.0882H304.907C305.099 53.8562 305.555 54.4562 306.275 54.8882C306.995 55.3442 307.883 55.5722 308.939 55.5722C310.211 55.5722 311.219 55.2002 311.963 54.4562C312.731 53.7362 313.115 52.5722 313.115 50.9642V48.1202C312.515 49.0562 311.687 49.8242 310.631 50.4242C309.575 51.0002 308.339 51.2882 306.923 51.2882C305.267 51.2882 303.767 50.8682 302.423 50.0282C301.079 49.1642 300.011 47.9522 299.219 46.3922C298.451 44.8082 298.067 42.9842 298.067 40.9202C298.067 38.8562 298.451 37.0442 299.219 35.4842C300.011 33.9242 301.079 32.7242 302.423 31.8842C303.767 31.0442 305.267 30.6242 306.923 30.6242ZM313.115 40.9562C313.115 39.4202 312.683 38.2082 311.819 37.3202C310.979 36.4322 309.947 35.9882 308.723 35.9882C307.499 35.9882 306.455 36.4322 305.591 37.3202C304.751 38.1842 304.331 39.3842 304.331 40.9202C304.331 42.4562 304.751 43.6802 305.591 44.5922C306.455 45.4802 307.499 45.9242 308.723 45.9242C309.947 45.9242 310.979 45.4802 311.819 44.5922C312.683 43.7042 313.115 42.4922 313.115 40.9562ZM335.964 30.6962C338.316 30.6962 340.188 31.4642 341.58 33.0002C342.996 34.5122 343.704 36.6002 343.704 39.2642V51.0002H337.584V40.0922C337.584 38.7482 337.236 37.7042 336.54 36.9602C335.844 36.2162 334.908 35.8442 333.732 35.8442C332.556 35.8442 331.62 36.2162 330.924 36.9602C330.228 37.7042 329.88 38.7482 329.88 40.0922V51.0002H323.724V30.9122H329.88V33.5762C330.504 32.6882 331.344 31.9922 332.4 31.4882C333.456 30.9602 334.644 30.6962 335.964 30.6962Z" fill="url(#paint0_linear)"/>
</g>
<g filter="url(#filter1_d)">
<circle cx="34" cy="30.0002" r="28.5" stroke="url(#paint1_linear)" stroke-width="3"/>
<mask id="mask0" mask-type="alpha" maskUnits="userSpaceOnUse" x="9" y="11" width="46" height="43">
<path d="M53.4999 26.4953C53.4999 30.5117 52.3923 34.0812 50.68 36.6041C48.9621 39.1351 46.7459 40.4826 44.4882 40.4826C42.2306 40.4826 40.0144 39.1351 38.2965 36.6041C36.5841 34.0812 35.4766 30.5117 35.4766 26.4953C35.4766 22.479 36.5841 18.9095 38.2965 16.3866C40.0144 13.8556 42.2306 12.5081 44.4882 12.5081C46.7459 12.5081 48.9621 13.8556 50.68 16.3866C52.3923 18.9095 53.4999 22.479 53.4999 26.4953Z" fill="#111010" stroke="url(#paint2_linear)" stroke-width="3"/>
<path d="M40.2708 52.1798C38.1419 52.1237 36.3012 51.5661 35.0501 50.788C33.7639 49.9881 33.3438 49.1375 33.3603 48.5134C33.3769 47.8892 33.8413 47.0619 35.1681 46.3309C36.4586 45.6199 38.3262 45.16 40.4551 45.2161C42.584 45.2723 44.4246 45.8299 45.6758 46.6079C46.962 47.4078 47.382 48.2585 47.3655 48.8826C47.349 49.5067 46.8846 50.334 45.5578 51.065C44.2673 51.7761 42.3997 52.2359 40.2708 52.1798Z" fill="#111010" stroke="url(#paint3_linear)" stroke-width="3"/>
<path d="M29.4733 26.4953C29.4733 30.5117 28.3657 34.0812 26.6534 36.6041C24.9355 39.1351 22.7193 40.4826 20.4616 40.4826C18.2039 40.4826 15.9878 39.1351 14.2699 36.6041C12.5575 34.0812 11.45 30.5117 11.45 26.4953C11.45 22.479 12.5575 18.9095 14.2699 16.3866C15.9878 13.8556 18.2039 12.5081 20.4616 12.5081C22.7193 12.5081 24.9355 13.8556 26.6534 16.3866C28.3657 18.9095 29.4733 22.479 29.4733 26.4953Z" fill="#111010" stroke="url(#paint4_linear)" stroke-width="3"/>
</mask>
<g mask="url(#mask0)">
<rect opacity="0.5" x="8" y="9.14522" width="51" height="44.7089" fill="url(#paint5_linear)"/>
</g>
</g>
<defs>
<filter id="filter0_d" x="74.9" y="22.1642" width="272.804" height="46.736" filterUnits="userSpaceOnUse" color-interpolation-filters="sRGB">
<feFlood flood-opacity="0" result="BackgroundImageFix"/>
<feColorMatrix in="SourceAlpha" type="matrix" values="0 0 0 0 0 0 0 0 0 0 0 0 0 0 0 0 0 0 127 0"/>
<feOffset dy="4"/>
<feGaussianBlur stdDeviation="2"/>
<feColorMatrix type="matrix" values="0 0 0 0 0 0 0 0 0 0 0 0 0 0 0 0 0 0 0.25 0"/>
<feBlend mode="normal" in2="BackgroundImageFix" result="effect1_dropShadow"/>
<feBlend mode="normal" in="SourceGraphic" in2="effect1_dropShadow" result="shape"/>
</filter>
<filter id="filter1_d" x="0" y="0.000213623" width="68" height="68" filterUnits="userSpaceOnUse" color-interpolation-filters="sRGB">
<feFlood flood-opacity="0" result="BackgroundImageFix"/>
<feColorMatrix in="SourceAlpha" type="matrix" values="0 0 0 0 0 0 0 0 0 0 0 0 0 0 0 0 0 0 127 0"/>
<feOffset dy="4"/>
<feGaussianBlur stdDeviation="2"/>
<feColorMatrix type="matrix" values="0 0 0 0 0 0 0 0 0 0 0 0 0 0 0 0 0 0 0.25 0"/>
<feBlend mode="normal" in2="BackgroundImageFix" result="effect1_dropShadow"/>
<feBlend mode="normal" in="SourceGraphic" in2="effect1_dropShadow" result="shape"/>
</filter>
<linearGradient id="paint0_linear" x1="318.5" y1="11.0002" x2="318.5" y2="98.0002" gradientUnits="userSpaceOnUse">
<stop stop-color="#3ABC47"/>
<stop offset="1" stop-color="white" stop-opacity="0.87"/>
</linearGradient>
<linearGradient id="paint1_linear" x1="34" y1="0.000213623" x2="34" y2="60.0002" gradientUnits="userSpaceOnUse">
<stop stop-color="#3ABC47"/>
<stop offset="1" stop-color="#5C5266"/>
</linearGradient>
<linearGradient id="paint2_linear" x1="44.9888" y1="28.4937" x2="44.4902" y2="41.9826" gradientUnits="userSpaceOnUse">
<stop stop-color="#8458B3"/>
<stop offset="1" stop-color="#BC3A80"/>
</linearGradient>
<linearGradient id="paint3_linear" x1="39.2596" y1="48.9062" x2="31.8664" y2="48.3934" gradientUnits="userSpaceOnUse">
<stop stop-color="#8458B3"/>
<stop offset="1" stop-color="#BC3A80"/>
</linearGradient>
<linearGradient id="paint4_linear" x1="20.9622" y1="28.4937" x2="20.4635" y2="41.9826" gradientUnits="userSpaceOnUse">
<stop stop-color="#8458B3"/>
<stop offset="1" stop-color="#BC3A80"/>
</linearGradient>
<linearGradient id="paint5_linear" x1="33" y1="24.3869" x2="33.5162" y2="53.8538" gradientUnits="userSpaceOnUse">
<stop stop-color="#3ABC47"/>
<stop offset="1" stop-color="#5C5266"/>
</linearGradient>
</defs>
</svg>
